HIERARCHY
ROOT Hips
{
	OFFSET 0.00000 0.00000 0.00000
	CHANNELS 6 Xposition Yposition Zposition Zrotation Yrotation Xrotation 
	JOINT LHipJoint
	{
		OFFSET 0 0 0
		CHANNELS 3 Zrotation Yrotation Xrotation
		JOINT LeftUpLeg
		{
			OFFSET 1.58895 -1.83665 0.71753
			CHANNELS 3 Zrotation Yrotation Xrotation
			JOINT LeftLeg
			{
				OFFSET 2.50528 -6.88321 0.00000
				CHANNELS 3 Zrotation Yrotation Xrotation
				JOINT LeftFoot
				{
					OFFSET 2.63244 -7.23257 0.00000
					CHANNELS 3 Zrotation Yrotation Xrotation
					JOINT LeftToeBase
					{
						OFFSET 0.23691 -0.65090 1.72750
						CHANNELS 3 Zrotation Yrotation Xrotation
						End Site
						{
							OFFSET 0.00000 -0.00000 0.92561
						}
					}
				}
			}
		}
	}
	JOINT RHipJoint
	{
		OFFSET 0 0 0
		CHANNELS 3 Zrotation Yrotation Xrotation
		JOINT RightUpLeg
		{
			OFFSET -1.51435 -1.83665 0.71753
			CHANNELS 3 Zrotation Yrotation Xrotation
			JOINT RightLeg
			{
				OFFSET -2.54551 -6.99375 0.00000
				CHANNELS 3 Zrotation Yrotation Xrotation
				JOINT RightFoot
				{
					OFFSET -2.66027 -7.30903 0.00000
					CHANNELS 3 Zrotation Yrotation Xrotation
					JOINT RightToeBase
					{
						OFFSET -0.22981 -0.63138 2.03959
						CHANNELS 3 Zrotation Yrotation Xrotation
						End Site
						{
							OFFSET -0.00000 -0.00000 1.07060
						}
					}
				}
			}
		}
	}
	JOINT LowerBack
	{
		OFFSET 0 0 0
		CHANNELS 3 Zrotation Yrotation Xrotation
		JOINT Spine
		{
			OFFSET -0.02651 1.86275 -0.11152
			CHANNELS 3 Zrotation Yrotation Xrotation
			JOINT Spine1
			{
				OFFSET 0.01019 1.86224 0.04087
				CHANNELS 3 Zrotation Yrotation Xrotation
				JOINT Neck
				{
					OFFSET 0 0 0
					CHANNELS 3 Zrotation Yrotation Xrotation
					JOINT Neck1
					{
						OFFSET -0.01926 1.80512 0.08867
						CHANNELS 3 Zrotation Yrotation Xrotation
						JOINT Head
						{
							OFFSET 0.05516 1.76451 -0.38475
							CHANNELS 3 Zrotation Yrotation Xrotation
							End Site
							{
								OFFSET 0.01592 1.82587 -0.14001
							}
						}
					}
				}
				JOINT LeftShoulder
				{
					OFFSET 0 0 0
					CHANNELS 3 Zrotation Yrotation Xrotation
					JOINT LeftArm
					{
						OFFSET 3.47116 1.51376 0.14491
						CHANNELS 3 Zrotation Yrotation Xrotation
						JOINT LeftForeArm
						{
							OFFSET 4.78095 -0.00000 0.00000
							CHANNELS 3 Zrotation Yrotation Xrotation
							JOINT LeftHand
							{
								OFFSET 3.58615 -0.00000 -0.00000
								CHANNELS 3 Zrotation Yrotation Xrotation
								JOINT LeftFingerBase
								{
									OFFSET 0 0 0
									CHANNELS 3 Zrotation Yrotation Xrotation
									JOINT LeftHandIndex1
									{
										OFFSET 0.65981 -0.00000 0.00000
										CHANNELS 3 Zrotation Yrotation Xrotation
										End Site
										{
											OFFSET 0.53196 -0.00000 0.00000
										}
									}
								}
								JOINT LThumb
								{
									OFFSET 0 0 0
									CHANNELS 3 Zrotation Yrotation Xrotation
									End Site
									{
										OFFSET 0.54008 -0.00000 0.54008
									}
								}
							}
						}
					}
				}
				JOINT RightShoulder
				{
					OFFSET 0 0 0
					CHANNELS 3 Zrotation Yrotation Xrotation
					JOINT RightArm
					{
						OFFSET -3.31725 1.61216 0.35156
						CHANNELS 3 Zrotation Yrotation Xrotation
						JOINT RightForeArm
						{
							OFFSET -4.48913 -0.00000 0.00000
							CHANNELS 3 Zrotation Yrotation Xrotation
							JOINT RightHand
							{
								OFFSET -3.70510 -0.00000 0.00000
								CHANNELS 3 Zrotation Yrotation Xrotation
								JOINT RightFingerBase
								{
									OFFSET 0 0 0
									CHANNELS 3 Zrotation Yrotation Xrotation
									JOINT RightHandIndex1
									{
										OFFSET -0.44914 -0.00000 0.00000
										CHANNELS 3 Zrotation Yrotation Xrotation
										End Site
										{
											OFFSET -0.36211 -0.00000 0.00000
										}
									}
								}
								JOINT RThumb
								{
									OFFSET 0 0 0
									CHANNELS 3 Zrotation Yrotation Xrotation
									End Site
									{
										OFFSET -0.36763 -0.00000 0.36763
									}
								}
							}
						}
					}
				}
			}
		}
	}
}
MOTION
Frames: 10
Frame Time: .0083333
-0.7172 18.6894 5.5895 0 0 0 0 0 0 -21 0 0 0 0 0 0 0 0 0 0 0 0 0 0 21 0 0 0 0 0 0 0 0 0 0 0 0 0 0 0 0 0 0 0 0 0 0 -16 0 0 21 0 0 11 0 0 0 -8 0 0 0 0 0 0 0 0 0 0 0 0 0 0 0 0 0 0 0 0 8 0 0 0 0 0 0 0 0 0 0 0 0 0 0 0 0 0
-0.7172 18.6894 5.5895 -1.9227 -3.6400 0.7341 0.0000 0.0000 0.0000 -12.9276 -7.5409 -1.4521 1.2859 7.1856 20.2665 1.6181 6.0727 -26.8763 7.9818 -16.1058 -52.4970 0.0000 0.0000 0.0000 0.0000 0.0000 0.0000 0.0000 0.0000 0.0000 -0.0000 -0.0000 0.0000 -0.0000 -0.0000 0.0000 -1.6448 0.6868 2.3096 0.2994 0.8659 -1.4981 1.1882 0.4671 -2.8625 0.9181 -0.6360 -14.0789 1.3784 -1.5227 25.1583 0.1348 -0.4536 10.3733 -0.0000 -0.0000 0.0000 -91.8895 12.6174 20.7949 22.0898 -33.0784 -6.6348 -0.0000 -0.0000 12.7058 10.3104 -26.0136 -4.5618 -7.1250 0.0000 -0.0000 -11.7538 4.0659 11.1320 -0.0000 -0.0000 0.0000 89.9455 -20.6923 22.8428 -26.7425 37.9325 -9.3404 0.0000 0.0000 17.1049 -2.7463 -37.6356 1.6778 7.1250 -0.0000 -0.0000 39.0187 -63.3869 -18.8272
-0.7139 18.6903 5.5892 -1.8688 -3.6137 0.7532 0.0000 0.0000 0.0000 -12.9943 -7.5479 -1.4853 1.2864 7.1871 20.2707 1.6146 6.0787 -26.8549 7.9947 -16.1153 -52.5434 0.0000 0.0000 0.0000 0.0000 0.0000 0.0000 0.0000 0.0000 0.0000 -0.0000 -0.0000 0.0000 -0.0000 -0.0000 0.0000 -1.6890 0.6727 2.3100 0.2888 0.8449 -1.5284 1.2028 0.4578 -2.8939 0.9612 -0.6235 -14.0226 1.3483 -1.5068 25.1502 0.1191 -0.4462 10.3587 -0.0000 -0.0000 0.0000 -91.8389 12.6354 20.8513 22.1228 -33.1155 -6.6528 -0.0000 -0.0000 12.6844 10.3723 -26.0083 -4.5888 -7.1250 0.0000 -0.0000 -11.7164 4.0639 11.0955 -0.0000 -0.0000 0.0000 89.9473 -20.7791 22.8465 -26.7523 37.9420 -9.3464 0.0000 0.0000 17.1661 -1.7618 -37.9288 1.0832 7.1250 -0.0000 -0.0000 40.3642 -63.3474 -19.5481
-0.7112 18.6909 5.5896 -1.8534 -3.6193 0.7635 0.0000 0.0000 0.0000 -13.0213 -7.5504 -1.4974 1.2870 7.1886 20.2752 1.6166 6.0915 -26.8764 7.9993 -16.1187 -52.5602 0.0000 0.0000 0.0000 0.0000 0.0000 0.0000 0.0000 0.0000 0.0000 -0.0000 -0.0000 0.0000 -0.0000 -0.0000 0.0000 -1.7039 0.6640 2.2946 0.3028 0.8334 -1.5455 1.2262 0.4527 -2.9029 0.9725 -0.6166 -13.9776 1.2986 -1.4858 25.1499 0.1024 -0.4417 10.3492 0.0000 -0.0000 0.0000 -91.8306 12.6418 20.8866 22.1625 -33.1601 -6.6745 -0.0000 -0.0000 12.6216 10.4592 -26.0075 -4.6278 -7.1250 0.0000 -0.0000 -11.6642 4.0543 11.0460 0.0000 -0.0000 0.0000 89.8645 -20.8404 22.9826 -26.7403 37.9304 -9.3390 0.0000 0.0000 17.1393 -1.7583 -38.0629 1.0842 7.1250 -0.0000 -0.0000 40.5448 -63.4478 -19.7447
-0.7091 18.6907 5.5901 -1.8743 -3.6164 0.7787 0.0000 0.0000 0.0000 -13.0094 -7.6015 -1.4925 1.2876 7.1901 20.2799 1.6268 6.0759 -26.9395 7.9832 -16.1069 -52.5022 0.0000 0.0000 0.0000 0.0000 0.0000 0.0000 0.0000 0.0000 0.0000 -0.0000 -0.0000 0.0000 -0.0000 -0.0000 0.0000 -1.7003 0.6629 2.2631 0.3336 0.8335 -1.5418 1.2562 0.4528 -2.8817 0.9287 -0.6293 -14.0442 1.3038 -1.4964 25.2080 0.1101 -0.4491 10.3837 0.0000 0.0000 0.0000 -91.8309 12.6103 20.9262 22.1846 -33.1851 -6.6866 -0.0000 -0.0000 12.5768 10.4024 -26.0598 -4.6108 -7.1250 0.0000 -0.0000 -11.7004 4.0096 11.0917 0.0000 0.0000 0.0000 89.7866 -20.8449 23.0838 -26.7220 37.9128 -9.3278 0.0000 0.0000 17.0896 -1.7047 -38.1285 1.0527 7.1250 -0.0000 -0.0000 40.6839 -63.4828 -19.8570
-0.7060 18.6907 5.5911 -1.9007 -3.5991 0.8012 0.0000 0.0000 0.0000 -12.9976 -7.6806 -1.4797 1.2873 7.1894 20.2777 1.6324 6.0792 -26.9809 7.9712 -16.0980 -52.4587 0.0000 0.0000 0.0000 0.0000 0.0000 0.0000 0.0000 0.0000 0.0000 -0.0000 -0.0000 0.0000 -0.0000 -0.0000 0.0000 -1.6736 0.6610 2.2227 0.3615 0.8334 -1.5364 1.2705 0.4523 -2.8534 0.8879 -0.6441 -14.0957 1.3364 -1.5174 25.2416 0.1257 -0.4582 10.4066 -0.0000 0.0000 0.0000 -91.8595 12.5427 20.8331 22.1625 -33.1602 -6.6745 -0.0000 -0.0000 12.6972 10.2535 -26.1226 -4.5537 -7.1250 0.0000 -0.0000 -11.7921 3.9653 11.1924 -0.0000 0.0000 0.0000 89.7445 -20.8476 23.1072 -26.7243 37.9150 -9.3292 0.0000 0.0000 17.0273 -1.6675 -38.1535 1.0303 7.1250 -0.0000 -0.0000 40.7534 -63.4916 -19.9051
-0.7028 18.6909 5.5929 -1.9060 -3.5878 0.8119 0.0000 0.0000 0.0000 -13.0125 -7.7400 -1.4543 1.2857 7.1851 20.2650 1.6337 6.1108 -27.0091 7.9647 -16.0932 -52.4355 0.0000 0.0000 0.0000 0.0000 0.0000 0.0000 0.0000 0.0000 0.0000 -0.0000 -0.0000 0.0000 -0.0000 -0.0000 0.0000 -1.6467 0.6616 2.1998 0.3735 0.8357 -1.5470 1.2677 0.4531 -2.8513 0.8613 -0.6545 -14.0477 1.3530 -1.5282 25.2044 0.1348 -0.4643 10.3841 0.0000 0.0000 0.0000 -91.8849 12.4892 20.7288 22.1174 -33.1094 -6.6499 -0.0000 -0.0000 12.8191 10.2634 -26.1725 -4.5663 -7.1250 0.0000 -0.0000 -11.7880 3.9150 11.1997 0.0000 0.0000 0.0000 89.7390 -20.8738 23.0668 -26.7206 37.9114 -9.3269 0.0000 0.0000 17.0488 -1.7379 -38.1784 1.0744 7.1250 -0.0000 -0.0000 40.7181 -63.5292 -19.9202
-0.7006 18.6913 5.5949 -1.8681 -3.5767 0.8147 0.0000 0.0000 0.0000 -13.0738 -7.7991 -1.4207 1.2843 7.1813 20.2535 1.6420 6.1244 -27.0752 7.9488 -16.0815 -52.3780 0.0000 0.0000 0.0000 0.0000 0.0000 0.0000 0.0000 0.0000 0.0000 -0.0000 -0.0000 0.0000 -0.0000 -0.0000 0.0000 -1.6855 0.6582 2.1851 0.3793 0.8301 -1.5718 1.2957 0.4515 -2.8691 0.7929 -0.6598 -14.0017 1.4038 -1.5313 25.2083 0.1643 -0.4664 10.3775 -0.0000 0.0000 0.0000 -91.8902 12.4873 20.7163 22.0828 -33.0704 -6.6309 -0.0000 -0.0000 12.8132 10.3579 -26.1936 -4.6125 -7.1250 0.0000 -0.0000 -11.7323 3.8831 11.1514 -0.0000 0.0000 0.0000 89.7199 -20.9070 23.0452 -26.6887 37.8807 -9.3073 0.0000 0.0000 17.1120 -1.8796 -38.1976 1.1626 7.1250 -0.0000 -0.0000 40.6059 -63.5818 -19.9053
-0.6990 18.6915 5.5964 -1.8299 -3.5659 0.8191 0.0000 0.0000 0.0000 -13.1331 -7.8601 -1.3909 1.2832 7.1783 20.2446 1.6493 6.1369 -27.1338 7.9244 -16.0633 -52.2898 0.0000 0.0000 0.0000 0.0000 0.0000 0.0000 0.0000 0.0000 0.0000 -0.0000 -0.0000 0.0000 -0.0000 -0.0000 0.0000 -1.7385 0.6478 2.1766 0.3852 0.8146 -1.5951 1.3323 0.4452 -2.8887 0.7657 -0.6541 -14.0138 1.4326 -1.5259 25.2774 0.1798 -0.4624 10.4056 0.0000 -0.0000 0.0000 -91.8875 12.5067 20.7080 22.0705 -33.0566 -6.6243 -0.0000 -0.0000 12.7707 10.4013 -26.1540 -4.6257 -7.1250 0.0000 -0.0000 -11.7047 3.9169 11.1166 0.0000 -0.0000 0.0000 89.6919 -20.9449 23.0630 -26.6807 37.8730 -9.3024 0.0000 0.0000 17.1134 -1.9570 -38.2184 1.2110 7.1250 -0.0000 -0.0000 40.5583 -63.6183 -19.9122
-0.6981 18.6916 5.5975 -1.8436 -3.5678 0.8311 0.0000 0.0000 0.0000 -13.1264 -7.8886 -1.3790 1.2814 7.1736 20.2307 1.6510 6.1451 -27.1507 7.9058 -16.0495 -52.2227 0.0000 0.0000 0.0000 0.0000 0.0000 0.0000 0.0000 0.0000 0.0000 -0.0000 -0.0000 0.0000 -0.0000 -0.0000 0.0000 -1.7243 0.6406 2.1771 0.3863 0.8053 -1.6136 1.3257 0.4406 -2.9075 0.8064 -0.6458 -14.0505 1.4133 -1.5215 25.3461 0.1665 -0.4579 10.4374 0.0000 0.0000 0.0000 -91.8473 12.5439 20.7171 22.0893 -33.0778 -6.6345 -0.0000 -0.0000 12.7457 10.4044 -26.0550 -4.6109 -7.1250 0.0000 -0.0000 -11.6990 4.0141 11.0893 0.0000 0.0000 0.0000 89.7049 -20.9601 23.0527 -26.6904 37.8823 -9.3084 0.0000 0.0000 17.1269 -1.9213 -38.1706 1.1876 7.1250 -0.0000 -0.0000 40.5294 -63.5728 -19.8531
